<svg xmlns="http://www.w3.org/2000/svg" width="1024" height="1024" viewBox="0 0 1024 1024"><g id="gray" fill="#8e8f90"><path d="m697 278 50.44-.06 15.95-.03c6.41 0 6.41 0 9.4-.01 2.1 0 4.2 0 6.3-.01h9.52c.48-.01.48-.01 2.86-.01 6.42.01 6.42.01 7.53 1.12.1 1.74.13 3.49.13 5.24.01 1.14.01 2.28.01 3.46v3.85c0 1.35.01 2.7.01 4.05.01 3.74.01 7.47.01 11.2 0 4.02.01 8.04.02 12.06.01 8.81.02 17.62.02 26.43 0 5.5.01 11.01.01 16.52l.03 45.79v14.88c0 15.91.02 31.82.05 47.73.02 16.35.03 32.71.03 49.07 0 9.17.01 18.34.03 27.52.01 7.82.02 15.65.01 23.48 0 3.98 0 7.96.01 11.95.18 54.11-10.03 103.4-49.25 143.02C712.49 762.45 668.63 770 617 770v-82c3.47-.5 3.47-.5 21-3 22.29-6.71 37.79-19.71 49-40 12.05-24.28 9.41-50 10-77h-93v8c-3.09 13.54-9.46 24.88-21 33-10.41 5.81-20.01 8.34-31.85 8.2-.79-.01-1.59-.01-2.41-.01-2.94-.01-5.87-.04-8.8-.07L520 617v-58c2.48-.66 2.48-.66 15-4 16.69-6.33 27.95-18.01 35.38-33.95A81 81 0 0 0 573 513c.23-.85.47-1.69.71-2.56 3.76-16.42-.5-32.94-8.68-47.31-9.13-14.1-21.96-22.83-38.03-27.13l-7-2v-58h83v93h94z"/><path d="M533 455c.86.42 1.72.85 2.6 1.29 11.2 6.07 18.92 16.38 22.54 28.54 2.86 12.36 1.47 25.79-4.65 36.91-7.56 11.57-18.05 19.08-31.49 22.26-14.38 1.48-27.02-.25-38.76-9.17-.74-.61-1.48-1.21-2.24-1.83-.32-.25-.32-.25-1.93-1.52-8.23-7.24-13.51-19.65-14.28-30.43-.43-14.03 3.49-23.95 11.46-35.24 14.32-14.65 38.03-20.53 56.75-10.81m-206 20h1v210h-1zm131 53c1.47 2.19 1.47 2.19 3.06 5 5.57 8.94 12.48 14.59 21.75 19.38.62.32 1.23.64 1.87.97 6.43 3.12 11.94 3.95 19.32 5.65v58l-10 2c-6.27 2.6-10.07 4.92-13.06 11.25-4.73 13.88-2.07 32.36-2.04 46.78 0 2.69.01 5.38.01 8.07 0 6.32.01 12.63.02 18.94.01 7.91.02 15.82.02 23.73.01 14.08.03 28.15.05 42.23h-99c-.12-37.85-.12-37.85-.15-53.81-.01-10.99-.03-21.98-.08-32.96-.03-8-.05-16.01-.05-24.01-.01-4.23-.02-8.46-.04-12.69-.18-35.74 2.83-66.04 28.57-93.22 9.64-9.18 35.63-30.02 49.75-25.31"/></g><path id="black" fill="#1f2020" d="M0 0h7.87c5.61 0 11.23 0 16.84.02 8.12.01 16.23.02 24.35.02 13.18 0 26.35.02 39.52.04 12.79.01 25.57.03 38.36.04h2.39c3.97 0 7.93 0 11.9.01 32.8.02 65.61.05 98.42.1 4.55 9.1-2.25 28.4-5.2 37.68-3.85 11.13-9.28 21.24-16.8 30.32-.71.86-1.42 1.72-2.15 2.61-15.1 17.51-34 26.84-56.85 29.39-6.11.35-12.24.27-18.36.25-1.81.01-3.63.01-5.44.01-3.89.01-7.77.01-11.65.01q-9.225 0-18.45.03c-17.48.05-34.96.07-52.44.08-9.67 0-19.34.02-29.02.05-6.1.02-12.21.03-18.31.01-3.81 0-7.61.02-11.42.03-1.75.01-3.51.01-5.26 0-13.52-.06-25.14 1.12-35.65 10.53-.86.76-1.73 1.52-2.62 2.31-18.57 21.01-12.77 43.58-13.38 72.69h177v57c-3.01 1-6.02 2-9.08 2.86-16.09 4.52-28.21 13.79-36.92 28.14l-5 9h-126v215h-99c-.06-46.43-.12-92.86-.15-139.29 0-5.49-.01-10.98-.01-16.47 0-1.09 0-2.18-.01-3.31-.01-17.66-.03-35.33-.06-52.99-.03-18.14-.04-36.28-.05-54.42 0-11.18-.02-22.37-.04-33.55-.02-7.68-.02-15.36-.02-23.04 0-4.42 0-8.85-.02-13.27-.16-46.3 8.78-83.82 42.11-117.73 18.66-18.51 41.65-31.84 66.81-39.31l2.4-.72C-34.63-.54-17.23-.05 0 0" transform="translate(390.348 189.773)"/></svg>