<?xml version="1.0"?>
<svg xmlns="http://www.w3.org/2000/svg" viewBox="188 160 648 648">
<g id="gray">
<path d="M0 0 C8.32 -0.01 8.32 -0.01 50.44 -0.06 C55.7 -0.07 60.97 -0.08 66.39 -0.09 C72.8 -0.09 72.8 -0.09 75.79 -0.1 C77.89 -0.1 79.99 -0.1 82.09 -0.11 C85.27 -0.11 88.44 -0.11 91.61 -0.11 C92.09 -0.12 92.09 -0.12 94.47 -0.12 C100.89 -0.11 100.89 -0.11 102 1 C102.1 2.74 102.13 4.49 102.13 6.24 C102.14 7.38 102.14 8.52 102.14 9.7 C102.14 10.97 102.14 12.24 102.14 13.55 C102.14 14.9 102.15 16.25 102.15 17.6 C102.16 21.34 102.16 25.07 102.16 28.8 C102.16 32.82 102.17 36.84 102.18 40.86 C102.19 49.67 102.2 58.48 102.2 67.29 C102.2 72.79 102.21 78.3 102.21 83.81 C102.22 99.07 102.23 114.33 102.24 129.6 C102.24 130.58 102.24 131.55 102.24 132.56 C102.24 133.54 102.24 134.52 102.24 135.53 C102.24 137.52 102.24 139.51 102.24 141.49 C102.24 142.48 102.24 143.46 102.24 144.48 C102.24 160.39 102.26 176.3 102.29 192.21 C102.31 208.56 102.32 224.92 102.32 241.28 C102.32 250.45 102.33 259.62 102.35 268.8 C102.36 276.62 102.37 284.45 102.36 292.28 C102.36 296.26 102.36 300.24 102.37 304.23 C102.55 358.34 92.34 407.63 53.12 447.25 C15.49 484.45 -28.37 492 -80 492 C-80 464.94 -80 437.88 -80 410 C-76.53 409.5 -76.53 409.5 -59 407 C-36.71 400.29 -21.21 387.29 -10 367 C2.05 342.72 -0.59 317 0 290 C-30.69 290 -61.38 290 -93 290 C-93 292.64 -93 295.28 -93 298 C-96.09 311.54 -102.46 322.88 -114 331 C-124.41 336.81 -134.01 339.34 -145.85 339.2 C-146.64 339.19 -147.44 339.19 -148.26 339.19 C-151.2 339.18 -154.13 339.15 -157.06 339.12 C-163.64 339.08 -170.22 339.04 -177 339 C-177 319.86 -177 300.72 -177 281 C-174.52 280.34 -174.52 280.34 -162 277 C-145.31 270.67 -134.05 258.99 -126.62 243.05 C-125.59 240.38 -124.75 237.76 -124 235 C-123.77 234.15 -123.53 233.31 -123.29 232.44 C-119.53 216.02 -123.79 199.5 -131.97 185.13 C-141.1 171.03 -153.93 162.3 -170 158 C-172.31 157.34 -174.62 156.68 -177 156 C-177 136.86 -177 117.72 -177 98 C-149.61 98 -122.22 98 -94 98 C-94 128.69 -94 159.38 -94 191 C-62.98 191 -31.96 191 0 191 C0 127.97 0 64.94 0 0 Z " fill="#00E676" transform="translate(697,278)"></path>
<path d="M0 0 C0.86 0.42 1.72 0.85 2.6 1.29 C13.8 7.36 21.52 17.67 25.14 29.83 C28 42.19 26.61 55.62 20.49 66.74 C12.93 78.31 2.44 85.82 -11 89 C-25.38 90.48 -38.02 88.75 -49.76 79.83 C-50.5 79.22 -51.24 78.62 -52 78 C-52.32 77.75 -52.32 77.75 -53.93 76.48 C-62.16 69.24 -67.44 56.83 -68.21 46.05 C-68.64 32.02 -64.72 22.1 -56.75 10.81 C-42.43 -3.84 -18.72 -9.72 0 0 Z " fill="#00E676" transform="translate(533,455)"></path>
<path d="M0 0 C0.33 0 0.66 0 1 0 C1 69.3 1 138.6 1 210 C0.67 210 0.34 210 0 210 C0 140.7 0 71.4 0 0 Z " fill="#00E676" transform="translate(327,475)"></path>
<path d="M0 0 C1.47 2.19 1.47 2.19 3.06 5 C8.63 13.94 15.54 19.59 24.81 24.38 C25.43 24.7 26.04 25.02 26.68 25.35 C33.11 28.47 38.62 29.3 46 31 C46 50.14 46 69.28 46 89 C44.35 89.33 44.35 89.33 36 91 C29.73 93.6 25.93 95.92 22.94 102.25 C18.21 116.13 20.87 134.61 20.9 149.03 C20.9 151.72 20.91 154.41 20.91 157.1 C20.91 163.42 20.92 169.73 20.93 176.04 C20.94 183.95 20.95 191.86 20.95 199.77 C20.96 213.85 20.98 227.92 21 242 C-11.67 242 -44.34 242 -78 242 C-78.12 204.15 -78.12 204.15 -78.15 188.19 C-78.16 177.2 -78.18 166.21 -78.23 155.23 C-78.26 147.23 -78.28 139.22 -78.28 131.22 C-78.29 126.99 -78.3 122.76 -78.32 118.53 C-78.5 82.79 -75.49 52.49 -49.75 25.31 C-40.11 16.13 -14.12 -4.71 0 0 Z " fill="#00E676" transform="translate(458,528)"></path>
</g>
<g id="black">
<path d="M0 0 C2.62 0 5.25 0 7.87 -0 C13.48 -0 19.1 0 24.71 0.02 C32.83 0.03 40.94 0.04 49.06 0.04 C62.24 0.04 75.41 0.06 88.58 0.08 C101.37 0.09 114.15 0.11 126.94 0.12 C127.33 0.12 127.33 0.12 129.33 0.12 C133.3 0.12 137.26 0.12 141.23 0.13 C174.03 0.15 206.84 0.18 239.65 0.23 C244.2 9.33 237.4 28.63 234.45 37.91 C230.6 49.04 225.17 59.15 217.65 68.23 C216.94 69.09 216.23 69.95 215.5 70.84 C200.4 88.35 181.5 97.68 158.65 100.23 C152.54 100.58 146.41 100.5 140.29 100.48 C138.48 100.49 136.66 100.49 134.85 100.49 C130.96 100.5 127.08 100.5 123.2 100.5 C117.05 100.5 110.9 100.51 104.75 100.53 C87.27 100.58 69.79 100.6 52.31 100.61 C42.64 100.61 32.97 100.63 23.29 100.66 C17.19 100.68 11.08 100.69 4.98 100.67 C1.17 100.67 -2.63 100.69 -6.44 100.7 C-8.19 100.71 -9.95 100.71 -11.7 100.7 C-25.22 100.64 -36.84 101.82 -47.35 111.23 C-48.21 111.99 -49.08 112.75 -49.97 113.54 C-68.54 134.55 -62.74 157.12 -63.35 186.23 C-4.94 186.23 53.47 186.23 113.65 186.23 C113.65 205.04 113.65 223.85 113.65 243.23 C110.64 244.23 107.63 245.23 104.57 246.09 C88.48 250.61 76.36 259.88 67.65 274.23 C66 277.2 64.35 280.17 62.65 283.23 C21.07 283.23 -20.51 283.23 -63.35 283.23 C-63.35 354.18 -63.35 425.13 -63.35 498.23 C-96.02 498.23 -128.69 498.23 -162.35 498.23 C-162.41 451.8 -162.47 405.37 -162.5 358.94 C-162.5 353.45 -162.51 347.96 -162.51 342.47 C-162.51 341.38 -162.51 340.29 -162.52 339.16 C-162.53 321.5 -162.55 303.83 -162.58 286.17 C-162.61 268.03 -162.62 249.89 -162.63 231.75 C-162.63 220.57 -162.65 209.38 -162.67 198.2 C-162.69 190.52 -162.69 182.84 -162.69 175.16 C-162.69 170.74 -162.69 166.31 -162.71 161.89 C-162.87 115.59 -153.93 78.07 -120.6 44.16 C-101.94 25.65 -78.95 12.32 -53.79 4.85 C-53.39 4.73 -53.39 4.73 -51.39 4.13 C-34.63 -0.54 -17.23 -0.05 0 0 Z " fill="#00E676" transform="translate(390.347900390625,189.77294921875)"></path>
</g>
</svg>